/* XPM */
static char *moon[] = {
/* columns rows colors chars-per-pixel */
"100 100 2 1 ",
"  c None",
". c white",
/* pixels */
"                                                                                                    ",
"                                                                                                    ",
"                                                                                                    ",
"                                                                                                    ",
"                                                                                                    ",
"                                                                                                    ",
"                                                                                                    ",
"                                                                                                    ",
"                                                                                                    ",
"                                                                                                    ",
"                                                                                                    ",
"                                                                                                    ",
"                                                                                                    ",
"                                                                                                    ",
"                                           .............                                            ",
"                                        ....................                                        ",
"                                     ......................                                         ",
"                                   ..................                                               ",
"                                 .................                                                  ",
"                               .................                                                    ",
"                              ................                                                      ",
"                            .................                                                       ",
"                           .................                                                        ",
"                          ................                                                          ",
"                         ................                                                           ",
"                        ................                                                            ",
"                       .................                                                            ",
"                       ................                                                             ",
"                      ................                                                              ",
"                     .................                                                              ",
"                     ................                                                               ",
"                    ................                                                                ",
"                    ................                                                                ",
"                   .................                                                                ",
"                  .................                                                                 ",
"                  .................                                                                 ",
"                  .................                                                                 ",
"                  ................                                                                  ",
"                 .................                                                                  ",
"                 .................                                                                  ",
"                 .................                                                                  ",
"                ..................                                                                  ",
"                ..................                                                                  ",
"                ..................                                                                  ",
"                ..................                                                                  ",
"                ..................                                                                  ",
"                ..................                                                                  ",
"                ..................                                                                  ",
"                ..................                                                                  ",
"                ...................                                                                 ",
"                ...................                                                                 ",
"                ...................                                                                 ",
"                ....................                                                                ",
"                ....................                                                                ",
"                .....................                                                               ",
"                 ....................                                                               ",
"                 .....................                                                              ",
"                 .....................                                                              ",
"                  .....................                                          .                  ",
"                  ......................                                        ..                  ",
"                  .......................                                       .                   ",
"                   .......................                                     ..                   ",
"                   ........................                                   ..                    ",
"                    ........................                                ....                    ",
"                    .........................                              ....                     ",
"                     ..........................                           .....                     ",
"                     ............................                      .......                      ",
"                      .............................                  .........                      ",
"                       ...............................            ...........                       ",
"                        ....................................................                        ",
"                         ..................................................                         ",
"                         .................................................                          ",
"                          ...............................................                           ",
"                            ............................................                            ",
"                             ..........................................                             ",
"                              .......................................                               ",
"                                ....................................                                ",
"                                 .................................                                  ",
"                                   .............................                                    ",
"                                     .........................                                      ",
"                                         ..................                                         ",
"                                              ........                                              ",
"                                                                                                    ",
"                                                                                                    ",
"                                                                                                    ",
"                                                                                                    ",
"                                                                                                    ",
"                                                                                                    ",
"                                                                                                    ",
"                                                                                                    ",
"                                                                                                    ",
"                                                                                                    ",
"                                                                                                    ",
"                                                                                                    ",
"                                                                                                    ",
"                                                                                                    ",
"                                                                                                    ",
"                                                                                                    ",
"                                                                                                    ",
"                                                                                                    "
};
